<svg xmlns="http://www.w3.org/2000/svg" viewBox="0 0 400 400"><g transform="matrix(2,0,0,2,0,0)"><g fill="#000000"><path d="M95.56 34.57c.23-.19.25-.72.29-1.24a178.15 178.15 0 0 0 .06-17.9c-.13-1.33-.18-1.38-1.6-1.49-3.84-.33-20.3 0-21.06.7-.52.5-.26 18.13.21 19.72a.48.48 0 0 0 .38.27c1.27.21 20.63.84 21.72-.06zM73.47 14.86c.85-.55 19.62-.65 21.61-.1.51 2.44.21 17.75-.08 19.26-3.53.48-18.94.16-20.93-.05a177.72 177.72 0 0 1-.6-19.11zm23.01 25.4a.6.6 0 0 0-.39-.48c-1.72-.62-21.35-.21-22.13.54-.49.46-.31 18 .2 19.72a.48.48 0 0 0 .38.27c1.64.27 19.08.69 21.38.09.34-.09.45-.22.51-.44.4-1.51.57-17.66.05-19.7zm-.78 19.43c-3.54.48-18.87.18-20.93 0-.47-2.35-.85-17.65-.6-19.11.89-.6 19.78-.61 21.61-.11.47 2.22.22 17.53-.08 19.22zm26.7-25.34c.22-.18.24-.72.29-1.24a178.14 178.14 0 0 0 0-17.9c-.13-1.33-.19-1.37-1.59-1.49-3.85-.32-20.3 0-21.06.7-.52.49-.27 18.13.21 19.72a.42.42 0 0 0 .37.27c1.38.22 20.68.84 21.78-.06zm-22.09-19.71c2-.61 19.82-.6 21.6-.1.47 2.24.26 17.51-.08 19.26-3.54.48-18.88.17-20.93 0a176.1 176.1 0 0 1-.59-19.16zM36.2 73.44c.14.39.66.56 1.09.66 3.66.89 17.1.41 21.25-.38.44-.08 1.32-.24 1.56-.61.92-1.48.55-25.27-.55-26.59s-20.43-1.09-22.13.21c-1.28.99-1.58 25.67-1.22 26.71zm1.65-26.2c1.62-1.13 20.69-1.46 21.46-.53 1 1.2.88 24.59.19 26-1.87 1-20.2 1.63-22.57.48-.32-.19-.02-23.9.92-25.95zM11.76 80.53a.9.9 0 0 0 .72.4 55.07 55.07 0 0 0 10.79-.18 1.56 1.56 0 0 0 .9-.33c.54-.71.26-10.66-.35-11.26s-10.37-.63-11.35 0a.83.83 0 0 0-.28.5 63.92 63.92 0 0 0-.43 10.87zM23.59 80a39.78 39.78 0 0 1-5.36.38 7.49 7.49 0 0 1 .45-.79 6.05 6.05 0 0 1 5.09-2.37 23.18 23.18 0 0 1-.18 2.78zM12.9 69.69c1.2-.47 10.41-.6 10.71-.31a3.93 3.93 0 0 1 .16.93c-1.53.2-1.77 3.09-1.81 4.63a25.89 25.89 0 0 0-2.06-2.88 2 2 0 0 0-1.9-.33c-.73.32-.59 1.22-.49 1.93a12.09 12.09 0 0 0 1.08 2.61c-.6-.48-3-2.42-3.68-2.54s-1.34-.08-1.68.52c-1 1.76 1.41 4.68 2.84 6.11a26.33 26.33 0 0 1-3.6-.2 69.74 69.74 0 0 1 .43-10.47z"></path><path d="M8.2 84.21c.14.33.6.45 1 .52 3 .62 13.8.27 17.15-.27.38-.07 1.1-.18 1.31-.46.78-1.06.45-17.62-.46-18.58-.77-.8-16.47-.87-17.94.09a1.17 1.17 0 0 0-.35.7c-.77 3.02-1.01 17.26-.71 18zm1.44-18.15c1.38-.75 16.69-1 17.3-.42s.7 16.23.12 17.91c-1.93.62-13.81 1.12-18.15.36-.2-.68-.02-15.71.73-17.85zm150.89-2.26a15 15 0 0 0 1.24 1.26.14.14 0 1 0 .22-.17A11.79 11.79 0 0 0 158.8 61a.14.14 0 1 0-.21.19 16.87 16.87 0 0 0 1.94 2.61zm-10.15 3.75a10.91 10.91 0 0 0 .19-4.65.14.14 0 0 0-.28 0 12 12 0 0 0-.25 1.76 11.09 11.09 0 0 0 .06 2.87c-.02.19.26.21.28.02zm-13.03-1.13a11 11 0 0 0 1.13-2.08 9.64 9.64 0 0 0 .75-2.26.14.14 0 0 0-.23-.08c-.1.16-.41.62-.6 1a12.41 12.41 0 0 0-1.28 3.37.14.14 0 1 0 .23.05zM75.42 135.4c5.29.34 5.36-5.38 0-4.47-3.42.18-2.37 4.29 0 4.47zm0-4.17c4.47-.23 4.11 3.66 0 3.41-1.42-.07-2.67-2.96.04-3.41zm19.34 1.07c5.31.34 5.36-5.38 0-4.47-3.38.17-2.36 4.29 0 4.47zm0-4.17c4.47-.23 4.12 3.66 0 3.41-1.4-.07-2.66-2.96.04-3.41zm11.36 6.61c5.3.34 5.36-5.38 0-4.48-3.39.19-2.37 4.3 0 4.48zm0-4.17c4.47-.23 4.12 3.66 0 3.41-1.4-.07-2.67-2.98.04-3.41zm3.09-4.01c5.29.34 5.37-5.38 0-4.47-3.39.18-2.36 4.3 0 4.47zm0-4.16c4.47-.23 4.11 3.65 0 3.41-1.4-.08-2.67-2.97.04-3.41zm-39.88-8.24a6 6 0 0 0 4.08-.46c2-1.08 2.09-3.54.91-5.46-1.83-3-5.64-2.69-7-.54a5 5 0 0 0-.55 3.41 4.13 4.13 0 0 0 2.56 3.05zM67.52 111a4.47 4.47 0 0 1 .39-2.92 3.64 3.64 0 0 1 4.43-1.26c2.06 1.16 3.15 5.06.72 6.25a5.38 5.38 0 0 1-3.48.4 3.4 3.4 0 0 1-2.06-2.47z"></path><path d="M69.62 108.49c-.12-.2-.76-.38-.71.23s1.09.38.71-.23zm2.23.02c.22-.35-.65-1-.74-.17-.03.27.35.76.74.17zM69.36 111c-.37.25.78 1.4 2.2.76a1.28 1.28 0 0 0 .79-1.08.15.15 0 1 0-.29-.09 2.63 2.63 0 0 1-2.48.46.17.17 0 0 0-.22-.05zm12.07 5.14c.91.38 5.22.27 5.93-.63.18-.22.06-.44-.07-.69-.44-.84-2.89-4.94-3.77-4.79s-1.76 2.5-2 3.27-.82 2.53-.09 2.84zm1-3.82c.13-.39.69-1.91 1.09-2s3 4.7 3.06 4.8a13 13 0 0 1-4.85.34 11.34 11.34 0 0 1 .74-3.14zm24.96-48.22a.39.39 0 0 0-.77 0 2.7 2.7 0 0 0 .12.69.39.39 0 1 0 .74-.22 2.49 2.49 0 0 1-.09-.47zm2.14 3.39a2.34 2.34 0 0 0 .69-.47c.16-.15.09-.32-.14-.28l-.67.14a7.52 7.52 0 0 1-.25-1.49c0-.38-.17-1.6-.37-1.68s-.25.31-.31.65c-.18 1.14-.03 3.55 1.05 3.13zm1.65-3.66a.39.39 0 0 0 .77 0v-.55a.41.41 0 0 0-.42-.36.4.4 0 0 0-.36.42c-.04.07.01.49.01.49zm.39 4.29c-.14 0 0 0-.75.59a1.88 1.88 0 0 1-.23.16c-.74.43-1.08.19-1.15.41s.52.57 1.17.41c1.06-.26 1.23-1.49.96-1.57zm-72.4 2.02c.11.34.53.49.88.57 2.85.72 13.07.31 16.11-.29.38-.08 1-.21 1.23-.52.72-1.19.37-19.66-.46-20.7s-15.47-.91-16.81.13c-1 .8-1.23 19.99-.95 20.81zm16.1-9a2.11 2.11 0 0 1 1.82.19 76.53 76.53 0 0 1-.31 8.18l-.2.07a14 14 0 0 0-4-6.64 14.52 14.52 0 0 1 2.69-1.83zm-3.67-8c1.65 1.06 1.6 3.78-1.28 3.81-1.75 0-2.5-.84-2.5-1.84a2.39 2.39 0 0 1 3.78-2zm-9.86 8.4c2.93-1.75 5.1-1.85 8 0 2.59 1.67 5.43 5 6.11 8.21-3 .54-14.52 1-16 .19-.13-.54-.18-6.2-.18-6.82a13.52 13.52 0 0 1 2.07-1.61zm95.7 111.68a7.1 7.1 0 0 0-1.37.24c-.47.18-.88.47-.65.92a4.33 4.33 0 0 0 1.29 1.64c.14.15.36-.07.22-.22s-.16-.46-.72-1.57a9.63 9.63 0 0 0 1.37-.73.16.16 0 0 0-.14-.28zm-2.03-2.87a1 1 0 0 0-.9 1.58.16.16 0 0 0 .31 0 1.47 1.47 0 0 1 .72-1.26c.15-.11.12-.37-.13-.32zm-25.73-99.43a.48.48 0 0 0-.28.88.48.48 0 0 0 .65-.13.49.49 0 0 0-.37-.75zm1.76.66a.52.52 0 0 0-.47.5.47.47 0 0 0 .8.34.48.48 0 0 0-.33-.84zm-.03-1.51a.48.48 0 0 0 .46.61.51.51 0 0 0 .49-.57.49.49 0 0 0-.95-.04zm2.72 2.06a.47.47 0 0 0 .26-.87.48.48 0 0 0-.73.4.48.48 0 0 0 .47.47zm.87-2.23a.48.48 0 1 0-.31-.9.48.48 0 0 0 .31.9z"></path><path d="M189.87 118.67a8.44 8.44 0 0 0-5.78.33c4.13-5.3 6.35-10.6 6.35-17.74 0-4.05-.4-7.86-4.23-9.13-2.36-.79-6.49.44-8.73 1.58 0-4.24.35-60.13-1.17-64.17-.12-.35-.8-.5-1.2-.6-4.31-1.05-25-2.93-26-2.06-.65.56-.43 4.79-.39 5.63-1.35 0-7.78-.09-8.64.94-1.33 1.57-8.41 19.83-8 21.86a.54.54 0 0 0 .16.3c4.24 4.13 32.28 3.38 33.56.81.83-1.5-4.8-21.29-5.8-22.42s-9.33-1.43-10.92-1.45a25.38 25.38 0 0 1 .18-5c.1-.42.17-.38.33-.41 2.68-.49 24.55 1.67 26.19 2.7.74 2.28.75 16.83 1.08 64.27a15.43 15.43 0 0 0-6.44 7.13c-1.32-.2-3.12 1.3-4.06 2.24a22.27 22.27 0 0 0-3.32 4.35 40.76 40.76 0 0 0-1.43-8.55c-2.27-6.11-9.11-17-13.88-12.4a15.25 15.25 0 0 0-3.56 7.2 33.12 33.12 0 0 0-5.71-4.35 18.74 18.74 0 0 0-7.55-10.41 31 31 0 0 0-4.72-2.73.44.44 0 0 0-.05-.09c-1-1.13-3.57-1.47-5.1-1.53.14-1.15-.85-6.15-1.09-7.37a1.63 1.63 0 0 0 .85-.22c1-.06 4.92-.25 5.63-.88a1 1 0 0 0 .24-.53 27.11 27.11 0 0 0 .32-3.11c.49-7.39.16-7 .39-7 3.16 1.17 4.2-1.88 0-3.36v-.3c1.23-.27 2.66-.84 2.09-2a2.38 2.38 0 0 0-2.06-1c0-2.54.67-38.09-.93-40-1.79-2.13-56.48-1.08-58.35.9-1.13 1.14-.43 51.36.87 56.14.07.25.34.3.6.34 4.33.7 30 1 36 1.06a17.35 17.35 0 0 0 .49 1.91 9.41 9.41 0 0 0 2 3.07 4.85 4.85 0 0 0 2.56.87c-.3.68-.88 1.94-1.18 2.57a31.82 31.82 0 0 0-8 3.62C94.75 84.31 89.78 92.93 86 100a34.63 34.63 0 0 0-1.83 4.33c-4.16-.11-21.26.49-21.71 1-.23.22 0 .68.06 1.09.78 2.89 3.69 12.31 4.89 15.69-1.81.29-3.62.66-5.43 1a3.29 3.29 0 0 0-.17-.39.47.47 0 1 0-.85.4 1.12 1.12 0 0 1 .05.13c-2.14.29-3.41.26-8.13.93a.47.47 0 0 0-.92.13c-2.74.41-5.19.84-8.1 1.38a3.44 3.44 0 0 0-.14-.37.48.48 0 0 0-.62-.25.47.47 0 0 0-.25.62c0 .06 0 .11.07.17-2.48.46-5 .94-7.43 1.39v-.42a.5.5 0 0 0-.52-.42.47.47 0 0 0-.42.52 4 4 0 0 1 0 .49c-1.23.22-2.47.42-3.71.62a.47.47 0 0 0-.91.14c-8.22 1.27-6.5.86-8.8-3.72a6.27 6.27 0 0 0-1.92-2.68 1.19 1.19 0 0 0-1.64.46c-.64.9-.19 3.93 0 5.09s1.21 6.54 1.91 7.24c.26.26 1.11.28 1.87.32v.23c-6.94.65-15.74 3.1-16.36 10.08-.46 5.23 3.78 7.3 8.89 8.41-.32 1.75-4.6 24.6-4.37 25.93.28 1.51 3.9 2.39 4.51.76.94-2.55 4.37-23.27 4.82-26a69.93 69.93 0 0 0 15.36-.3c.46 2.72 3.87 23.32 4.81 25.87.6 1.62 4.23.74 4.5-.76.24-1.33-4-23.94-4.41-26.18 5.69-1.7 11.49-5.18 10.7-11.09 7.28-.33 15.61-1.23 22.81-2.17a8.08 8.08 0 0 0 .88 3.71c.71 1.33 3.26 2.24 4.69 2.7-.26 1.39-5.13 27.28-4.88 28.69s3.9 2.38 4.5.76c1-2.65 4.64-24.88 5.21-28.2 11.08 2.29 16.22 1.62 20.19 1.17.1 1.19 2 25.79 2.63 27 .66 1.38 4.39 1.28 4.55-.44.25-2.77-2-24.5-2.21-27.21a81.33 81.33 0 0 0 17.85-4.36c1.2 4.57 4.25 16 4.51 16.93a14.44 14.44 0 0 0-7 5.84 50.94 50.94 0 0 0-5.14 2.65 18.22 18.22 0 0 0-2.64 1.43 6.82 6.82 0 0 0-2 1.94 1 1 0 0 0 0 .82 4.15 4.15 0 0 0 1 1.3c1.83 1.59 2.76.84 6.24 5.81 1.78 2.53 2.43 5.76 4.66 8.49 1.57 1.92 2.35 4 6 3.07 2-.5 3.1-1.37 5.83-2.11 1.39-.37 2.82-.64 4.21-1.06 8.62-2.58 6.59-1.88 12.49-2.72 1-.15 2.07-.38 3.1-.54a52.14 52.14 0 0 1 5.43-.16 1.16 1.16 0 0 0 .86-1 6.59 6.59 0 0 0 .07-1.59 5.54 5.54 0 0 0-.86-3.46c4.62.8 16.79-.16 17.81-.76a.51.51 0 0 0 .22-.22c.6-1.29 1.45-12.83 1.46-17.25a17 17 0 0 0 1-.19c.7-.17.8-3.44.36-4.33a.65.65 0 0 0-.4-.37c-2.86-.65-10.69-.49-13.77-.37a71.31 71.31 0 0 0-1.21-11.1 52.73 52.73 0 0 0 10.75-3.73c6.41-3.17 10.13-4.42 14.42-10.61 3.07-4.4 1.52-9.85-3.55-11.53zm-30.11-84.51c1 1 5.67 19 5.59 21.78-.06 2.3-28.41 3-32.5-.79.05-3.13 6.72-20.13 7.71-21.33s17.9-1.06 19.2.34zm20.14 59.33c1.67-.55 4.4-1.2 6.07-.64 3.46 1.15 3.7 4.78 3.7 8.41 0 7.54-2.54 12.92-7.11 18.43a24 24 0 0 0-5.68 4.35 32.21 32.21 0 0 0 .65-11.44 10.39 10.39 0 0 0-.43-2 42 42 0 0 1 2.58-6.13c1.61-3 2.26-2.95 2-3.2a.14.14 0 0 0-.21 0 23.87 23.87 0 0 0-4.75 8.2c-.93-2.48-3.33-6.93-5.68-8a14.76 14.76 0 0 1 8.86-7.98zM166.84 104a6.66 6.66 0 0 1 3.19-2c1.9-.3 6.36 6.64 6.73 10.74a30.81 30.81 0 0 1-1 12.52 35.59 35.59 0 0 0-2.79 3.45c-1.89 2.68-2.9 3.22-4.48 7.51.27-10.62 1.11-24.26 1.11-24.71a.15.15 0 0 0-.14-.21c-.17 0-.17.21-.19.37-.27 2.55-1.27 19.33-1.47 25.84-1.77-8.53-6-11.75-7.43-13.82-.55-6.89 1.53-14.82 6.47-19.69zm-20 7.67c1 2.75 2.79 6.66 5 8.55a13.55 13.55 0 0 0-6.87.34c.51-1.79 1.6-6.74 1.89-8.92zM143.59 123a1.31 1.31 0 0 1 .19-.77c2-2.64 12.79-2.71 19 5.62a25.92 25.92 0 0 1 4.76 14.49c-2.77-4.68-12.37-13.86-18.56-16a.15.15 0 1 0-.1.29c7.29 2.67 18.75 15.09 18.6 17.62a11 11 0 0 0-1.85.12 17 17 0 0 1-2.59-.2c-2.74-.47-4.5-1.73-8.67-5.65a77.79 77.79 0 0 1-8.15-8.69c-.95-1.65-2.66-4.9-2.63-6.83zm1.2-28.53a14.47 14.47 0 0 1 3.42-7.1c4.14-4 10.65 6.77 12.64 12.13a44.94 44.94 0 0 1 1.5 9.58 28.89 28.89 0 0 0-2.63 13.43c-2.86-4.32-6.84-13.71-8.29-21-.27-1.29-1.36-8.1-1.36-8.89.12-.2-.3-.43-.32 0a72.55 72.55 0 0 0 1.93 13.1 72.6 72.6 0 0 0 6.38 15.39c2.16 4 2.59 2.46-2.18.27a17.52 17.52 0 0 0-3-1 10.43 10.43 0 0 1-1.48-1.32c-3.95-4.57-7.57-17.3-6.61-24.58zm-75.19 31c1.47.08 3.11-.33 3.72-1.65l7.15.18a2.51 2.51 0 0 0 2.14 2.74 4.3 4.3 0 0 0 3.3-.95 2 2 0 0 0 .67-1.69l4.71.07c.25.36 14.24-1.27 15.49-1.86.62-.29.44-1.31.08-1.89.12 0 .06 0 .2.23a1.19 1.19 0 0 0 .41.52 10.86 10.86 0 0 0 5.07-.59c.32-.22.28-.48.21-.89 8.88-1.26 8.14-1 13.18-2.16.28-.06-3.5 1.25-5.75 2.46a14.35 14.35 0 0 0-3 2.11c-2.28 2.19-7.3 17.92-11.31 18.68a54 54 0 0 1-14.82.42 1.92 1.92 0 0 0-.42-2.08 4.31 4.31 0 0 0-3.1-1.13c-1.74 0-2.61 1.07-2.3 2.46a97 97 0 0 1-13.52-3.19c-.44-1.26-1.88-10.26-2.11-11.79zm-.16-1.8 3 .13a3.37 3.37 0 0 1-2.77.94c-.04-.11-.12-.55-.23-1.07zm16.4.42a1.38 1.38 0 0 1 0 .2 1.56 1.56 0 0 1-.79 1.18 4 4 0 0 1-2.43.51 2 2 0 0 1-1.58-1.7 2.44 2.44 0 0 1 0-.27zm9.29-7.38-2.41.3c7.35-9.84 3.18-5.4 2.41-.3zm-2.89 1 3-.34c.25.44 2.65 1.22 3.11 1.37a3.38 3.38 0 0 0-.22.52c-2.15-.16-4.41-.31-6.75-.39zm19.81 2.29a13.38 13.38 0 0 1-4.19.5 65 65 0 0 1-2.76-7.62 9.33 9.33 0 0 1 4-2.06c.44 1.05 2.9 8.12 2.95 9.18zm-5.41-.27c-5.62.35-7 .55-7.89.33-.06-2.43 4.11-3.69 6.53-4.08.48 1.47.98 2.81 1.36 3.74zm-11.55 2.19c1.14-.16 10-1.34 11.14-1.07a1.42 1.42 0 0 1 .19.79c-1.38.42-14.73 2.2-14.85 2.21a4 4 0 0 1-.2-1.2v-.08c.5-.01-1.37.05 3.72-.66zm-4.29-2.38c2 .08 4.09.19 7.2.44 0 .27 0 .52.28.72s1-.09-3.42.74a18.12 18.12 0 0 0-3.66.89c-.6-3.03-.63-2.52-.4-2.8zm-.44 21.35c-5.15-.54-4.8-.36-4.81-.58a1.46 1.46 0 0 1 .63-1.37c1.12-.73 4.82.15 4.18 1.94zm35.1-64.26c-.27.21-9.57 7.28-10.94 8.14a28.56 28.56 0 0 0-2.29-3.09c1.12-1.24 8.66-6.43 8.66-6.43.32 0 3.39.33 4.57 1.37zM105.68 78a28.08 28.08 0 0 1 3.76-1.22c2 4.85 1.48 3.79 1.82 4.65a42.87 42.87 0 0 0-4.26 2.21c-.61-1.45-1.52-4.11-1.32-5.64zm21-29.94v1.26c-3 .39-3 1-3 .61 1.63-.93 2.68-1.18 3.01-1.93zm-3.92 7.76a2.87 2.87 0 0 0-.68-.45c-.15-.08 0 0 0-.23a1.41 1.41 0 0 0 0-.56 3.82 3.82 0 0 0 .76.12c-.05.3-.06.72-.07 1.08zm-3.26-5.37c-.32.43-.7.87-1 1.32a9.76 9.76 0 0 1 2.66-4.61 11 11 0 0 0 1.22-.91c1.24-1.43-1-2.89-2.82-1.26a8 8 0 0 0-2.63 4.49c-.26 1.33.13 1.17-.35 1.05a2 2 0 0 0-1.36 0c-.32-.94-2.42-.93-3.13-.42-.29.21-.09.17-.32 0a3.14 3.14 0 0 0-2.65.45c-.09.06-.41.46-.59.65a2.65 2.65 0 0 0-1.15.2 1.59 1.59 0 0 0-.82.87v.23a1.51 1.51 0 0 0-.54 0 2.77 2.77 0 0 0-1.49 1.49 1.43 1.43 0 0 0-.13 1c-.87.47-1.78 1.15-1.63 2.13a2.28 2.28 0 0 0 .37.68c-.25.18-.93.26-.79 1.78l-.75-.06c-.52-2.63-.84-18.94-.58-19.12 1.19-.55 19.68-.62 21.59-.09a58.48 58.48 0 0 1 .28 6.8 11.48 11.48 0 0 0-3.38 3.29zm6.33 15.5a17.24 17.24 0 0 1-3.76.57 1.1 1.1 0 0 0 .42-1.15 1.24 1.24 0 0 0 .9-.71 1.32 1.32 0 0 0 0-.92c-.06-.14-.12 0 .19-.17a1.44 1.44 0 0 0 .59-2.09 1.21 1.21 0 0 0 .18-1.31 1.58 1.58 0 0 0-.72-.66 1.33 1.33 0 0 0-.18-1.6c0-.86.08-1.94.12-3.15a6.08 6.08 0 0 1 2.94.79c-.06 1.63-.28 8.88-.67 10.36zm-56.19 0c-1.34-5.75-2.16-54.69-1.3-55.57C70 8.56 122.29 7.89 126 9.7a10.18 10.18 0 0 1 .35 2c.72 7.35.51 28 .38 35.57-.47-1.11-1.95-1-3.07-.57a54 54 0 0 0-.33-6.62.56.56 0 0 0-.39-.48c-1.75-.63-21.35-.21-22.13.53-.48.47-.31 18 .21 19.73a.43.43 0 0 0 .37.26c.28 0 .93.09 1.15.1.17.31.44.37.59.5a.7.7 0 0 0-.25.61 2.74 2.74 0 0 0 .58 1.42c.48.57.92.4 1.41.4.1.83.31 2.2.62 3.72-7.16.01-32.61-.37-35.84-.99zm41.87 7a.61.61 0 0 0-.4-.14 5 5 0 0 1-2.46-.7 9 9 0 0 1-1.87-2.79 38.19 38.19 0 0 1-1.46-8.1c.09-1.24 1.34-2.77 3.6-3.24a9.08 9.08 0 0 1 5.27.65c1.33.53 3.17 2.65 3.91 3.8a.23.23 0 0 0 .31.06 5.12 5.12 0 0 1 1-.5 1.17 1.17 0 0 1 1.4.85c.52 1.18-1.43 3.15-1.7 3.53a.44.44 0 0 0 0 .31 70.55 70.55 0 0 1 1.18 8.15c-.33.19-.74.5-4.15 3.06a39.35 39.35 0 0 0-4.2 3.09c-.37-1.18-1.31-3.26-1.79-4.31 1.58-3.54 1.6-3.52 1.37-3.75zm-24.85 27.4c4-7.58 10.26-18.68 18.66-22.09a14.49 14.49 0 0 0 1.26 6.18.36.36 0 0 0 .59 0 5.68 5.68 0 0 1 1.27-.82 6 6 0 0 0 .94 2c-.22 1.26-4.23 17.76-4 18.73a23.46 23.46 0 0 0 2.79 5.18c.22.3.46.53.77.28a20.23 20.23 0 0 0 3.72-5.21c.06-.21.08-.07-.61-18.62.33-.38 1-1.18 1.31-1.64.82 1.15.36 1 .65 1.23s.46.1.71 0c1.64-.94 10-7.4 11.31-8.65a29.37 29.37 0 0 1 4.65 2.66c6.57 4.2 8 11.55 8.69 19.29.46 5.44-.23 10.06-4.25 13.52a21.78 21.78 0 0 1-9.12 4.37c-2.18.54-11.66 1.93-13.46 2.18a77.14 77.14 0 0 0-2.74-7.29c3.27-1.42 9.14-3.51 12.48-4.64a.26.26 0 0 0 .19-.27c-.22-2.8-.51-10.11.57-12.71.08-.18-.21-.3-.29-.12-1.16 2.65-1 9.76-.84 12.65-3.43 1.1-9.1 3-12.4 4.43-.14-.3-.15-.44-.43-.47-.85-.07-4.12 1.32-4.57 2.17-.2.37.41 2.24.62 2.91-2.08.18-5 .87-6.38 2.47a15.5 15.5 0 0 1-2.9-1.15c.44-3 2.86-7.77 4.38-10.3.58-1 1.31-7.49 1.38-8.56a24.74 24.74 0 0 0 0-2.87.16.16 0 0 0-.31 0c-.06.62-.17 1.34-.3 2.16-.06.45-.77 7.76-1.5 9-2.32 3.29-6.61 9.31-9.09 12.49-.09-.4-3.07-13.74-3.65-14.1a5.81 5.81 0 0 0-1.84-.27 33.93 33.93 0 0 1 1.74-4.12zm-23.45 5.54c3.13-.32 22-1.27 23.23-.66.06.47 1.37 3.92 2.5 9.29.85 4 2 8 2.22 9.33-.52 0-21.68-.84-22.66-1-.76-1.71-4.78-14.96-5.29-16.96zM20 133.93c-.6-1-2.66-10.1-1.79-11.32 1.12-1.56 3 4.1 3.62 5.21 1.2 2.35 3.28 1.81 8.37 1 .18.53.24 1 .7 1a.48.48 0 0 0 .44-.65c-.08-.2-.14-.39-.19-.55 3.83-.61 3.42-.64 3.43-.48a.47.47 0 1 0 .94 0v-.23c2.56-.46 5.11-1 7.67-1.43 0 .14.07.27.12.4a.47.47 0 0 0 .89-.31c0-.09 0-.18-.08-.26 2.79-.52 5.21-1 7.93-1.36v.68a.47.47 0 0 0 .94-.08v-.73c5-.73 5.91-.64 8.32-1l.17.47a.48.48 0 0 0 .88-.36 2.77 2.77 0 0 1-.1-.26c1.81-.3 3.61-.68 5.43-1 .32.84.28.83 1.26.91.11 0 .47 4.09 1.79 11.43-11.24.62-32.79 1-43.4-.68-.64-.1-1.64-.14-1.54-.14-1.15-1.53-3.26-4.44-4.16-2.78a4 4 0 0 0-.39 2.59 8.6 8.6 0 0 1-1.25-.07zm11.13 1.64a28.35 28.35 0 0 0-3.44 1.09 18.73 18.73 0 0 1-1.33-1.66c1.04.1 1.69.29 4.75.57zM13.34 180c-.22.6-1.84.42-2.65-.16-.63-.46-.84 1.63 3.62-26.17a38.07 38.07 0 0 0 4.19.6c-2.93 14.98-4.68 24.4-5.16 25.73zm29.43-1.5c0 .45.13.6-.33.94-.79.57-2.43.78-2.66.17-.5-1.34-2.45-11.84-5.14-25.66a37.43 37.43 0 0 0 4.13-.91c1.14 7.13 3.93 24.68 4 25.41zm-16-29.22c-5.72 0-17.9-.21-20.78-5.18 1.48-5.81 9.61-7.69 15.57-8.3a51.08 51.08 0 0 0 1.84 5.7 3.83 3.83 0 0 0 1.86 2 4.78 4.78 0 0 0 4-.74c13.91-1.44 8.62-.48 18.8-.83-3.69 5.71-14.38 7.31-21.28 7.3zm9.11-7.87c-.25 0-6.76.53-7 .67a4.23 4.23 0 0 1-3.37.71 3.07 3.07 0 0 1-1.43-1.58c-.61-1.53-3.17-8.53-1.75-9.41 1.07.14 4.27 5.31 5.05 5.68a.45.45 0 0 0 .41 0 35.8 35.8 0 0 1 5.6-1.68 310.52 310.52 0 0 0 37.36-.3 16.94 16.94 0 0 0 .48 2.1.29.29 0 0 0 .19.17c1 .32 2.23.72 3.76 1.15-26.44 3.27-32.1 1.9-39.29 2.44zm41.24 33.86c-.22.6-1.85.41-2.65-.17-.62-.44-.93 2.14 4.06-28.91 1.26.39 2.68.76 4.19 1.08-3.41 17.43-5.09 26.62-5.59 27.95zm32.53-.25c-.06.63-1.67.88-2.6.53-.74-.28-.38 1.89-3.44-27.08q2.1-.24 4.23-.54c1.16 16.48 1.95 25.66 1.82 27.07zm16.77-31.64c1.33-.52 2.65-1.08 3.93-1.69l4.41 17.43a18.21 18.21 0 0 0-3.51 1c-1.25-4.46-3.58-12.47-4.82-16.79zm12.34 16.15a25.93 25.93 0 0 1 7.08 1.26 25 25 0 0 1 2.4.8 20.24 20.24 0 0 1 6.48 4.7c1.78 2.1 2.18 4.83 2 7.6-.13 1.67-1.21 2.76-2.52 3.82-.14-1.13-2-2-3.08-2.17-.16 0-.18.06.25-.18a4.2 4.2 0 0 0 1.76-1.88c.14-.15-.09-.36-.22-.21-1.09.75-1.67 1.35-3.14 2.27-.1 0-.08.24-.72.21a11.23 11.23 0 0 0-2.72-.3 7.61 7.61 0 0 1 .72-7c1.72-2.31 2.37-1.47 2.37-1.9 0-.67-4.38.54-4.33 5.88a6.45 6.45 0 0 0 .86 3 10.35 10.35 0 0 0-3.46.78c-.23-.21-1.19.29-1.81 0a15.28 15.28 0 0 0 .58-5.52 5.77 5.77 0 0 0-1.35-3 7.7 7.7 0 0 0-3-2.1c-2.38-.86-3.19.35-4.6.8a1.13 1.13 0 0 1-.72 0c-.9-.29-3.33-1-3.86-.19-.41.61.19 1.51.58 2.19s.52.72-.13 2.37a7.68 7.68 0 0 1-.76 1.56c-.51.53-2.22.92-2.54 1.54-.65 1.2 1.82 2.41 2.28 3s1.26 1.68 1.69 2.14c1.63 1.78 5.62 2.19 7.69 1.53a6.15 6.15 0 0 0 2.62-1.64c.63.53.51 1.36.34 2.19-.1.48-.61.76-1 1a7 7 0 0 1-4.33 1.1 7 7 0 0 1-1.15-.49 9.45 9.45 0 0 1-2.82-1.18 9.21 9.21 0 0 0-2.61-1.85c-4.73-1.21-5.63-6.89-4.14-11.35 1.84-5.66 9.21-8.94 15.32-8.83zm-3.26 20.73c1-1.72.43-4-.65-5.6-1.3-2-2.46-1.3-3.35-1.76-1.26-.66-1.45-1.4-1.95-1.76a2.74 2.74 0 0 0-.78-.35 4.94 4.94 0 0 0 .43-1.61c-.07-.68-1.17-2.14-1-2.47.53-.25 2.5.3 3.06.49 1.07.36 2.3-.65 3.24-1 1.55-.51 3.72.8 4.77 2 1.71 2 1.33 4.45.82 7a5.77 5.77 0 0 1-4.58 5.01zm-1.94-3.1c.08.14-.11.33-.28.15a1.11 1.11 0 0 1-.31-1 .92.92 0 0 1 .63-.79c.27-.09.3.16.2.24a1.54 1.54 0 0 0-.23 1.35zm29.42 5.5c0 .56.12 1.44-.25 1.8-.19.19-2.81-.22-5.49.17-1 .15-2.07.38-3.1.52-5.77.82-4 .15-12.61 2.75-1.38.41-2.79.68-4.18 1.05-2.7.73-3.87 1.62-5.82 2.1-3.11.78-3.65-.92-5.2-2.8-2.18-2.66-2.81-5.84-4.64-8.43-3.6-5.09-4.54-4.33-6.39-5.91a3.49 3.49 0 0 1-.88-1.09.34.34 0 0 1 0-.35 8 8 0 0 1 1.7-1.57 18 18 0 0 1 2.55-1.41c1.38-.75 3.23-1.9 4.43-2.42-2.27 4.8-1.46 12 4.2 13.36a3.42 3.42 0 0 1 1 .54 12.83 12.83 0 0 0 2.3 1.69c.68.3 1.45.46 2.13.71a4.12 4.12 0 0 0 3.7.25 8.48 8.48 0 0 0 3-1.62 1.45 1.45 0 0 0 .37-.69c.18-1 .26-1.93-.5-2.55a6.74 6.74 0 0 0 1.2-2.22 2.12 2.12 0 0 0 1.09.1c-1.5 1.23-1.06 2.29.87 2.78a15.5 15.5 0 0 0 5.69.33c1.88-.17 4.41-.06 5.93-1.22s3.06-2.51 3.25-4.58-.11-2.55.19-1.9c.59 1.26 1.05 2.59 1.73 3.78 1.16 2 3.32 3.16 3.63 5.52a9.5 9.5 0 0 1 .12 1.26zm17.25-4.83s0-.06 0 0c.2.37-14.58 1.58-18.1.5-.15-.18-.3-.36-.47-.54-1-3.33-2.31-12.37-2.71-15.42A183.12 183.12 0 0 0 182 161c-.11 2.84-1.21 15.27-1.76 16.78zm3-21.24a6.34 6.34 0 0 1 0 3.83c-.42.66-23.66 1.51-25.43 1.06a7.42 7.42 0 0 1-.53-3.68s.46-.21.94-.32c4.99-1.16 24.54-1.72 25.07-.94zm-14.36-.86c-2.69.11-8.55.42-11.08 1.07-.45.12-1.08.3-1.2.71-.3.95.05 3.81.72 4.53.21.24.81.26 1.25.29.37 3.71 1.23 10.58 2 14.24-1.65-1.94-2-4.12-3.37-6.27a9.27 9.27 0 0 0-2-4.49 21 21 0 0 0-6.76-4.93c-.76-.31-1.55-.55-2.47-.83a23 23 0 0 0-10.56-1.07c-.25-1-3.5-12.81-4.79-17.45 6.43-3.18 10.33-8.93 12.74-15.69a27.17 27.17 0 0 0 2.19 4.41c1.1 1.8 10.93 11.9 14.79 13.62a12.07 12.07 0 0 0 5.23.9 16 16 0 0 0 1.84-.16c.22.94.78 3.6 1.52 11.07zm23.89-25.91c-4.2 6.06-7.93 7.29-14.12 10.36a53.09 53.09 0 0 1-10.08 3.64c.95-2.33 3.64-5.24 5.34-7a155.32 155.32 0 0 1 13.28-12 .15.15 0 0 0-.18-.24c-9.61 6.52-17 15-18.75 18.26a24.07 24.07 0 0 0-.21-3.66 21.1 21.1 0 0 1 1.89-5.26 32.93 32.93 0 0 1 3.47-4.92c3.49-4.83 10.49-11.51 16.19-9.6 4.65 1.51 5.97 6.4 3.22 10.37z"></path><path d="M48.59 128.45a.48.48 0 0 0 .43-.68c-.19-.42-.29-.82-.56-1.31a.48.48 0 0 0-.64-.19.47.47 0 0 0-.19.64c.44.81.43 1.54.96 1.54zm-8.9 1.07a.48.48 0 0 0 .49.45.47.47 0 0 0 .45-.49c0-1 .22-1.8-.53-1.85a.48.48 0 0 0-.43.52c.05.48 0 .85.02 1.37zm17.56-2.61a.47.47 0 0 0 .94-.08c0-.47 0-.89-.08-1.43a.48.48 0 0 0-.94.15c.07.45.04.87.08 1.36z"></path></g></g></svg>